<svg width="800" height="800" viewBox="0 0 800 800" fill="none" xmlns="http://www.w3.org/2000/svg">
  <rect width="800" height="800" rx="48" fill="url(#bg)"/>
  <circle cx="128" cy="132" r="72" fill="#FFF6D8" fill-opacity="0.9"/>
  <path d="M0 498C106 436 180 432 272 472C356 508 414 576 506 590C592 604 674 562 800 458V800H0V498Z" fill="#FFD89B" fill-opacity="0.82"/>
  <path d="M0 604C124 524 230 508 332 546C408 574 458 640 554 650C640 660 700 624 800 552V800H0V604Z" fill="#FF9A62" fill-opacity="0.6"/>
  <path d="M80 286C140 234 202 216 278 220C360 224 418 260 486 256C556 252 616 220 708 170" stroke="#FFF2CC" stroke-width="18" stroke-linecap="round" stroke-opacity="0.7"/>
  <g opacity="0.8">
    <circle cx="590" cy="244" r="80" fill="#FFFFFF" fill-opacity="0.24"/>
    <circle cx="590" cy="244" r="44" fill="#FFFFFF" fill-opacity="0.34"/>
  </g>
  <defs>
    <linearGradient id="bg" x1="82" y1="56" x2="712" y2="760" gradientUnits="userSpaceOnUse">
      <stop stop-color="#FFB347"/>
      <stop offset="0.55" stop-color="#FF9A62"/>
      <stop offset="1" stop-color="#FF7A45"/>
    </linearGradient>
  </defs>
</svg>
