<svg width="800" height="800" viewBox="0 0 800 800" fill="none" xmlns="http://www.w3.org/2000/svg">
  <rect width="800" height="800" rx="48" fill="url(#bg)"/>
  <circle cx="150" cy="156" r="68" fill="#E2E8F0" fill-opacity="0.55"/>
  <circle cx="632" cy="126" r="88" fill="#94A3B8" fill-opacity="0.22"/>
  <path d="M98 612L216 420L320 514L432 336L542 438L682 240" stroke="#E2E8F0" stroke-width="22" stroke-linecap="round" stroke-linejoin="round" stroke-opacity="0.74"/>
  <path d="M110 664H690" stroke="#CBD5E1" stroke-width="18" stroke-linecap="round" stroke-opacity="0.6"/>
  <path d="M112 664L242 534L348 592L470 448L586 512L688 382" stroke="#38BDF8" stroke-width="18" stroke-linecap="round" stroke-linejoin="round" stroke-opacity="0.88"/>
  <g opacity="0.84">
    <rect x="118" y="554" width="104" height="110" rx="24" fill="#111827" fill-opacity="0.22"/>
    <rect x="254" y="494" width="104" height="170" rx="24" fill="#111827" fill-opacity="0.3"/>
    <rect x="390" y="430" width="104" height="234" rx="24" fill="#111827" fill-opacity="0.38"/>
    <rect x="526" y="368" width="104" height="296" rx="24" fill="#111827" fill-opacity="0.48"/>
  </g>
  <defs>
    <linearGradient id="bg" x1="76" y1="54" x2="702" y2="742" gradientUnits="userSpaceOnUse">
      <stop stop-color="#334155"/>
      <stop offset="0.58" stop-color="#1E293B"/>
      <stop offset="1" stop-color="#0F172A"/>
    </linearGradient>
  </defs>
</svg>
